<?xml version="1.0" encoding="UTF-8"?>
<!DOCTYPE svg PUBLIC "-//W3C//DTD SVG 1.1//EN" "http://www.w3.org/Graphics/SVG/1.1/DTD/svg11.dtd">
<svg xmlns="http://www.w3.org/2000/svg" version="1.1" width="429px" height="429px" style="shape-rendering:geometricPrecision; text-rendering:geometricPrecision; image-rendering:optimizeQuality; fill-rule:evenodd; clip-rule:evenodd" xmlns:xlink="http://www.w3.org/1999/xlink">
<g><path style="opacity:0.999" fill="#7367f0" d="M 240.5,8.5 C 246.5,13.8333 252.167,19.5 257.5,25.5C 260.252,30.6737 263.252,35.6737 266.5,40.5C 268.314,46.7795 270.647,52.7795 273.5,58.5C 273.367,61.5879 274.7,63.5879 277.5,64.5C 289.478,58.8976 301.811,54.3976 314.5,51C 330.915,47.7246 346.248,50.2246 360.5,58.5C 363.167,61.8333 366.167,64.8333 369.5,67.5C 379.239,84.9261 381.072,103.259 375,122.5C 371.935,132.632 367.768,142.299 362.5,151.5C 363.09,152.799 364.09,153.632 365.5,154C 370.085,155.795 374.752,157.295 379.5,158.5C 384.311,161.07 389.311,163.403 394.5,165.5C 399.978,170.073 405.645,174.407 411.5,178.5C 414.811,182.656 417.977,186.99 421,191.5C 423.349,195.741 425.182,200.075 426.5,204.5C 426.666,211.175 426.5,217.842 426,224.5C 424.298,230.896 421.798,236.896 418.5,242.5C 415.757,244.239 413.757,246.573 412.5,249.5C 405.552,255.594 397.885,260.761 389.5,265C 380.948,268.462 372.282,271.629 363.5,274.5C 362.417,275.365 362.251,276.365 363,277.5C 364.872,280.596 366.705,283.596 368.5,286.5C 368.402,288.553 369.069,290.22 370.5,291.5C 373.812,300.762 376.479,310.096 378.5,319.5C 378.83,327.893 378.33,336.227 377,344.5C 374.524,349.447 372.358,354.447 370.5,359.5C 368.738,360.262 367.738,361.596 367.5,363.5C 353.051,376.833 336.051,381.666 316.5,378C 306.654,375.742 296.987,372.908 287.5,369.5C 284.055,367.274 280.389,365.274 276.5,363.5C 275.914,363.709 275.414,364.043 275,364.5C 269.269,382.674 260.435,399.008 248.5,413.5C 248.5,414.167 248.167,414.5 247.5,414.5C 231.962,426.818 214.629,430.151 195.5,424.5C 194.486,423.326 193.153,422.66 191.5,422.5C 190.341,420.75 188.674,419.75 186.5,419.5C 186.027,418.094 185.027,417.427 183.5,417.5C 172.147,405.803 163.147,392.469 156.5,377.5C 156.494,371.958 154.661,367.291 151,363.5C 137.057,369.926 122.557,374.759 107.5,378C 100.508,378.5 93.5079,378.666 86.5,378.5C 58.3486,368.573 46.1819,348.573 50,318.5C 51.2399,312.835 52.5733,307.168 54,301.5C 57.5293,292.453 61.0293,283.453 64.5,274.5C 59.0266,272.379 53.3599,270.713 47.5,269.5C 46.2196,268.069 44.5529,267.402 42.5,267.5C 39.3177,264.66 35.651,262.66 31.5,261.5C 28.3733,258.102 24.7066,255.435 20.5,253.5C 16.6742,249.198 12.8409,244.865 9,240.5C -0.434465,225.955 -1.93447,210.622 4.5,194.5C 4.32842,193.508 4.66175,192.842 5.5,192.5C 15.6897,177.498 29.3564,166.664 46.5,160C 52.2162,158.154 57.8828,156.154 63.5,154C 64.3567,153.311 65.0233,152.478 65.5,151.5C 53.3957,130.783 48.3957,108.449 50.5,84.5C 51.7384,82.7857 52.405,80.7857 52.5,78.5C 63.2917,58.2621 80.2917,48.5954 103.5,49.5C 119.606,52.1978 134.94,57.3644 149.5,65C 150.5,65.6667 151.5,65.6667 152.5,65C 155.179,58.6399 157.679,52.1399 160,45.5C 168.191,26.4806 181.358,12.1472 199.5,2.5C 214.043,-0.898922 227.71,1.10108 240.5,8.5 Z M 248.5,42.5 C 253.254,52.934 257.087,63.6007 260,74.5C 242.59,88.5748 227.257,104.575 214,122.5C 210.291,117.06 206.125,112.06 201.5,107.5C 197.401,102.226 193.067,97.059 188.5,92C 184.018,88.242 179.685,84.242 175.5,80C 173.595,78.5787 171.595,77.412 169.5,76.5C 168.463,74.2625 168.297,71.9291 169,69.5C 172.231,57.7135 177.064,46.7135 183.5,36.5C 187.525,33.4421 190.858,29.7755 193.5,25.5C 198.388,22.2247 203.721,19.7247 209.5,18C 218.511,16.9188 226.511,19.2521 233.5,25C 239.11,30.4394 244.11,36.2727 248.5,42.5 Z M 116.5,68.5 C 120.94,70.5376 125.607,72.2042 130.5,73.5C 135.858,76.5988 141.358,79.5988 147,82.5C 146.669,92.3115 146.169,102.145 145.5,112C 146.051,124.548 147.051,137.048 148.5,149.5C 144.846,149.058 141.179,148.724 137.5,148.5C 129.05,147.009 120.383,146.342 111.5,146.5C 101.823,146.902 92.1566,147.069 82.5,147C 79.6811,142.519 77.0145,138.019 74.5,133.5C 74.5979,131.447 73.9313,129.78 72.5,128.5C 70.8695,121.289 68.8695,114.289 66.5,107.5C 66.334,102.156 66.5006,96.8229 67,91.5C 68.6459,86.2148 70.8126,81.2148 73.5,76.5C 75.1667,75.5 76.5,74.1667 77.5,72.5C 82.3116,69.2663 87.645,67.4329 93.5,67C 101.22,66.5896 108.886,67.0896 116.5,68.5 Z M 351.5,138.5 C 349.358,140.765 347.691,143.432 346.5,146.5C 337.018,147.384 327.518,147.384 318,146.5C 308.976,146.667 300.143,147.334 291.5,148.5C 289.265,148.205 287.265,148.539 285.5,149.5C 283.076,149.808 280.743,149.474 278.5,148.5C 279.917,141.59 280.75,134.59 281,127.5C 281.307,112.461 281.473,97.4608 281.5,82.5C 299.972,69.7295 320.305,64.8962 342.5,68C 355.441,74.2037 361.774,84.537 361.5,99C 361.171,106.305 360.004,113.471 358,120.5C 355.724,126.497 353.557,132.497 351.5,138.5 Z M 173.5,102.5 C 177.439,108.108 182.106,113.108 187.5,117.5C 191.122,123.122 195.122,128.455 199.5,133.5C 201.082,136.335 202.415,139.335 203.5,142.5C 200.368,151.062 197.535,159.729 195,168.5C 192.341,166.754 189.508,165.42 186.5,164.5C 181.396,161.128 176.062,158.128 170.5,155.5C 170.573,153.973 169.906,152.973 168.5,152.5C 164.571,134.015 163.571,115.348 165.5,96.5C 167.921,98.9337 170.588,100.934 173.5,102.5 Z M 228.5,154.5 C 228.598,152.447 227.931,150.78 226.5,149.5C 226.244,147.063 225.577,144.729 224.5,142.5C 227.858,136.446 231.191,130.446 234.5,124.5C 241.741,116.991 248.741,109.324 255.5,101.5C 257.799,100.222 260.132,98.8889 262.5,97.5C 264.091,114.947 263.258,132.28 260,149.5C 259.275,151.949 258.275,154.283 257,156.5C 248.597,159.701 240.597,163.701 233,168.5C 232.095,163.513 230.595,158.846 228.5,154.5 Z M 167.5,192.5 C 167.414,193.496 167.748,194.329 168.5,195C 159.605,197.632 150.772,200.465 142,203.5C 134.749,200.128 127.916,196.128 121.5,191.5C 120.415,189.413 118.749,188.08 116.5,187.5C 109.486,180.486 102.819,173.153 96.5,165.5C 115.695,163.65 134.695,164.817 153.5,169C 157.32,174.807 160.487,180.973 163,187.5C 164.049,189.618 165.549,191.284 167.5,192.5 Z M 317.5,182.5 C 308.108,189.894 298.441,196.894 288.5,203.5C 283.161,202.162 277.828,200.829 272.5,199.5C 268.324,197.863 263.991,196.363 259.5,195C 264.301,187.903 268.467,180.403 272,172.5C 273.214,170.951 274.714,169.785 276.5,169C 295.021,164.53 313.688,163.53 332.5,166C 327.584,171.741 322.584,177.241 317.5,182.5 Z M 394.5,185.5 C 396.833,188.5 399.5,191.167 402.5,193.5C 402.738,195.404 403.738,196.738 405.5,197.5C 411.271,209.48 410.771,221.147 404,232.5C 400.629,235.703 397.462,239.036 394.5,242.5C 392.973,242.427 391.973,243.094 391.5,244.5C 380.52,251.332 368.687,256.332 356,259.5C 355.167,259.333 354.333,259.167 353.5,259C 351.297,256.628 348.963,254.461 346.5,252.5C 341.141,244.631 334.808,237.464 327.5,231C 325.266,229.25 322.932,227.75 320.5,226.5C 317.224,222.529 313.224,219.529 308.5,217.5C 307.71,216.206 306.71,215.039 305.5,214C 307.618,212.951 309.284,211.451 310.5,209.5C 315.071,207.262 319.071,204.262 322.5,200.5C 326.606,197.571 330.606,194.404 334.5,191C 335.252,190.329 335.586,189.496 335.5,188.5C 342.448,181.954 348.948,174.954 355,167.5C 369.148,171.493 382.315,177.493 394.5,185.5 Z M 103.5,198.5 C 104.911,200.914 106.911,202.581 109.5,203.5C 110.262,205.262 111.596,206.262 113.5,206.5C 116.48,209.144 119.48,211.811 122.5,214.5C 113.402,220.762 104.736,227.595 96.5,235C 89.1949,242.974 81.8616,250.974 74.5,259C 72.8659,259.494 71.1992,259.66 69.5,259.5C 56.298,255.15 43.9646,248.983 32.5,241C 28.6019,237.271 24.9352,233.438 21.5,229.5C 21.0075,227.181 20.0075,225.181 18.5,223.5C 16.1848,206.625 22.1848,193.459 36.5,184C 48.1213,176.183 60.788,171.183 74.5,169C 83.0239,180.023 92.6906,189.857 103.5,198.5 Z M 218.5,182.5 C 218.552,184.903 218.219,187.236 217.5,189.5C 215.025,190.687 212.691,190.353 210.5,188.5C 210.5,187.5 210.5,186.5 210.5,185.5C 211.195,180.204 212.362,174.871 214,169.5C 215.625,173.279 216.625,177.279 217,181.5C 217.383,182.056 217.883,182.389 218.5,182.5 Z M 181.5,183.5 C 181.735,182.903 182.235,182.57 183,182.5C 188.732,184.576 192.732,188.242 195,193.5C 193.132,194.672 191.298,194.505 189.5,193C 186.22,190.225 183.554,187.058 181.5,183.5 Z M 246.5,181.5 C 244.31,187.523 240.477,192.189 235,195.5C 233.831,194.991 232.998,194.158 232.5,193C 236.478,188.175 241.145,184.342 246.5,181.5 Z M 177.5,211.5 C 180.972,211.126 183.972,212.126 186.5,214.5C 185.335,215.584 184.002,216.417 182.5,217C 177.274,217.288 172.274,216.288 167.5,214C 170.991,213.262 174.325,212.429 177.5,211.5 Z M 244.5,211.5 C 249.952,211.575 255.286,212.409 260.5,214C 254.654,216.118 248.654,216.785 242.5,216C 241.663,214.989 241.33,213.822 241.5,212.5C 242.791,212.737 243.791,212.404 244.5,211.5 Z M 152.5,227.5 C 154.515,228.924 156.848,229.59 159.5,229.5C 161.65,230.67 163.984,231.67 166.5,232.5C 167.386,233.325 167.719,234.325 167.5,235.5C 166.542,235.953 165.708,236.619 165,237.5C 161.628,244.412 158.128,251.245 154.5,258C 151.352,259.605 148.019,260.605 144.5,261C 133.234,262.803 121.901,263.969 110.5,264.5C 105.735,264.486 101.068,263.819 96.5,262.5C 105.247,252.751 114.58,243.751 124.5,235.5C 129.444,232.355 134.444,229.188 139.5,226C 143.904,225.742 148.238,226.242 152.5,227.5 Z M 297.5,230.5 C 299.296,232.9 301.63,234.567 304.5,235.5C 313.965,244.464 323.298,253.631 332.5,263C 329.635,263.183 326.969,263.683 324.5,264.5C 309.064,264.095 293.73,262.595 278.5,260C 275.966,259.484 273.8,258.317 272,256.5C 268.989,248.306 264.822,240.806 259.5,234C 268.547,231.262 277.547,228.428 286.5,225.5C 290.384,226.725 294.051,228.392 297.5,230.5 Z M 191.5,232.5 C 193.958,232.926 195.124,234.259 195,236.5C 191.448,241.233 186.948,244.566 181.5,246.5C 183.439,242.566 185.772,238.899 188.5,235.5C 189.5,235.167 190.167,234.5 190.5,233.5C 191.167,233.5 191.5,233.167 191.5,232.5 Z M 237.5,242.5 C 237.167,241.5 236.5,240.833 235.5,240.5C 234.559,238.534 233.559,236.534 232.5,234.5C 234.074,233.369 235.741,233.202 237.5,234C 241.194,237.893 244.527,242.06 247.5,246.5C 247.333,246.833 247.167,247.167 247,247.5C 243.924,245.574 240.758,243.908 237.5,242.5 Z M 213.5,241.5 C 215.68,243.031 216.68,245.198 216.5,248C 214.848,261.97 213.181,261.97 211.5,248C 211.482,245.59 212.149,243.423 213.5,241.5 Z M 168.5,275.5 C 176.78,270.02 185.447,265.02 194.5,260.5C 197.498,269.161 200.498,277.828 203.5,286.5C 193.766,303.74 181.266,318.74 166,331.5C 164.362,321.66 164.029,311.66 165,301.5C 166.005,292.794 167.171,284.127 168.5,275.5 Z M 250.5,268.5 C 252.676,270.515 255.176,272.182 258,273.5C 263.096,292.835 264.763,312.501 263,332.5C 254.635,325.301 246.802,317.634 239.5,309.5C 238.581,306.911 236.914,304.911 234.5,303.5C 232.237,298.635 229.237,294.302 225.5,290.5C 225.337,288.143 225.503,285.81 226,283.5C 229.259,276.131 231.425,268.465 232.5,260.5C 238.5,263.167 244.5,265.833 250.5,268.5 Z M 119.5,358.5 C 116.572,358.565 113.905,359.232 111.5,360.5C 88.5484,365.868 73.5484,357.535 66.5,335.5C 66.8715,315.885 72.2048,297.718 82.5,281C 104.571,282.187 126.571,281.353 148.5,278.5C 145.112,300.79 144.612,323.124 147,345.5C 138.333,351.086 129.166,355.419 119.5,358.5 Z M 293.5,279.5 C 296.641,280.321 299.975,280.821 303.5,281C 317.549,281.34 331.549,281.506 345.5,281.5C 355.898,298.024 361.231,316.024 361.5,335.5C 356.162,355.29 343.162,363.79 322.5,361C 308.544,358.904 295.544,354.238 283.5,347C 281.686,346.08 280.686,344.58 280.5,342.5C 282.244,321.073 281.577,299.74 278.5,278.5C 283.463,279.254 288.463,279.587 293.5,279.5 Z M 224.5,318.5 C 231.126,328.126 239.126,336.46 248.5,343.5C 252.196,347.339 255.863,351.172 259.5,355C 257.19,364.108 254.19,372.941 250.5,381.5C 248,384.494 246,387.827 244.5,391.5C 240.03,396.802 235.03,401.636 229.5,406C 225.947,408.121 222.28,409.621 218.5,410.5C 215.167,410.5 211.833,410.5 208.5,410.5C 204.792,409.037 201.126,407.37 197.5,405.5C 196.738,403.738 195.404,402.738 193.5,402.5C 193.167,401.5 192.5,400.833 191.5,400.5C 190.243,397.573 188.243,395.239 185.5,393.5C 178.207,382.249 172.541,370.249 168.5,357.5C 168.343,356.127 168.51,354.793 169,353.5C 186.482,340.195 201.482,324.528 214,306.5C 217.365,310.693 220.865,314.693 224.5,318.5 Z"/></g>
<g><path style="opacity:0.133" fill="#090909" d="M 208.5,-0.5 C 212.167,-0.5 215.833,-0.5 219.5,-0.5C 223.806,0.250474 228.14,1.41714 232.5,3C 235.756,4.11596 238.422,5.94929 240.5,8.5C 227.71,1.10108 214.043,-0.898922 199.5,2.5C 202.408,1.18398 205.408,0.183984 208.5,-0.5 Z"/></g>
<g><path style="opacity:0.047" fill="#060606" d="M 240.5,8.5 C 247.833,12.5 253.5,18.1667 257.5,25.5C 252.167,19.5 246.5,13.8333 240.5,8.5 Z"/></g>
<g><path style="opacity:0.057" fill="#0c0c0c" d="M 199.5,2.5 C 181.358,12.1472 168.191,26.4806 160,45.5C 157.679,52.1399 155.179,58.6399 152.5,65C 151.5,65.6667 150.5,65.6667 149.5,65C 134.94,57.3644 119.606,52.1978 103.5,49.5C 111.027,49.3808 118.36,50.5474 125.5,53C 134.532,56.5197 143.532,60.0197 152.5,63.5C 157.532,41.5815 168.532,23.4149 185.5,9C 189.808,6.01176 194.475,3.84509 199.5,2.5 Z"/></g>
<g><path style="opacity:0.186" fill="#0a0a0a" d="M 248.5,42.5 C 244.11,36.2727 239.11,30.4394 233.5,25C 226.511,19.2521 218.511,16.9188 209.5,18C 203.721,19.7247 198.388,22.2247 193.5,25.5C 201.769,16.7657 211.769,14.2657 223.5,18C 234.988,22.9888 243.322,31.1554 248.5,42.5 Z"/></g>
<g><path style="opacity:0.051" fill="#090909" d="M 257.5,25.5 C 261.772,29.707 264.772,34.707 266.5,40.5C 263.252,35.6737 260.252,30.6737 257.5,25.5 Z"/></g>
<g><path style="opacity:0.012" fill="#070707" d="M 193.5,25.5 C 190.858,29.7755 187.525,33.4421 183.5,36.5C 185.087,33.7318 186.92,31.0652 189,28.5C 190.129,26.8588 191.629,25.8588 193.5,25.5 Z"/></g>
<g><path style="opacity:0.141" fill="#0c0c0c" d="M 183.5,36.5 C 177.064,46.7135 172.231,57.7135 169,69.5C 168.297,71.9291 168.463,74.2625 169.5,76.5C 167.748,76.5824 166.748,75.7491 166.5,74C 169.203,60.0182 174.869,47.5182 183.5,36.5 Z"/></g>
<g><path style="opacity:0.037" fill="#080808" d="M 103.5,49.5 C 80.2917,48.5954 63.2917,58.2621 52.5,78.5C 57.9361,63.2595 68.6028,53.7595 84.5,50C 90.9686,48.5346 97.3019,48.3679 103.5,49.5 Z"/></g>
<g><path style="opacity:0.024" fill="#080808" d="M 266.5,40.5 C 269.997,45.9809 272.33,51.9809 273.5,58.5C 270.647,52.7795 268.314,46.7795 266.5,40.5 Z"/></g>
<g><path style="opacity:0.267" fill="#090909" d="M 360.5,58.5 C 346.248,50.2246 330.915,47.7246 314.5,51C 301.811,54.3976 289.478,58.8976 277.5,64.5C 274.7,63.5879 273.367,61.5879 273.5,58.5C 274.584,60.3186 275.918,61.9853 277.5,63.5C 298.572,50.8522 321.239,46.3522 345.5,50C 351.474,51.315 356.474,54.1483 360.5,58.5 Z"/></g>
<g><path style="opacity:0.059" fill="#060606" d="M 360.5,58.5 C 364.5,60.5 367.5,63.5 369.5,67.5C 366.167,64.8333 363.167,61.8333 360.5,58.5 Z"/></g>
<g><path style="opacity:0.16" fill="#0c0c0c" d="M 116.5,68.5 C 108.886,67.0896 101.22,66.5896 93.5,67C 87.645,67.4329 82.3116,69.2663 77.5,72.5C 80.9588,68.7705 85.2921,66.6038 90.5,66C 96.5,65.3333 102.5,65.3333 108.5,66C 111.457,66.2794 114.123,67.1127 116.5,68.5 Z"/></g>
<g><path style="opacity:0.179" fill="#090909" d="M 351.5,138.5 C 353.557,132.497 355.724,126.497 358,120.5C 360.004,113.471 361.171,106.305 361.5,99C 361.774,84.537 355.441,74.2037 342.5,68C 320.305,64.8962 299.972,69.7295 281.5,82.5C 281.473,97.4608 281.307,112.461 281,127.5C 280.75,134.59 279.917,141.59 278.5,148.5C 280.743,149.474 283.076,149.808 285.5,149.5C 283.052,150.473 280.385,150.806 277.5,150.5C 280.181,127.57 281.015,104.57 280,81.5C 299.136,68.0153 320.303,63.1819 343.5,67C 353.734,71.5736 359.9,79.4069 362,90.5C 363.524,107.722 360.024,123.722 351.5,138.5 Z"/></g>
<g><path style="opacity:0.051" fill="#0a0a0a" d="M 116.5,68.5 C 120.222,69.0166 123.888,69.85 127.5,71C 128.942,71.3768 129.942,72.2101 130.5,73.5C 125.607,72.2042 120.94,70.5376 116.5,68.5 Z"/></g>
<g><path style="opacity:0.059" fill="#0c0c0c" d="M 77.5,72.5 C 76.5,74.1667 75.1667,75.5 73.5,76.5C 73.8333,74.1667 75.1667,72.8333 77.5,72.5 Z"/></g>
<g><path style="opacity:0.045" fill="#080808" d="M 52.5,78.5 C 52.405,80.7857 51.7384,82.7857 50.5,84.5C 50.2594,82.1016 50.9261,80.1016 52.5,78.5 Z"/></g>
<g><path style="opacity:0.055" fill="#080808" d="M 73.5,76.5 C 70.8126,81.2148 68.6459,86.2148 67,91.5C 66.5006,96.8229 66.334,102.156 66.5,107.5C 64.1755,97.3603 65.6755,87.6937 71,78.5C 71.7083,77.6195 72.5416,76.9528 73.5,76.5 Z"/></g>
<g><path style="opacity:0.056" fill="#0b0b0b" d="M 173.5,102.5 C 170.588,100.934 167.921,98.9337 165.5,96.5C 163.571,115.348 164.571,134.015 168.5,152.5C 167.778,152.082 167.278,151.416 167,150.5C 163.006,132.044 161.506,113.377 162.5,94.5C 167.227,95.5406 170.894,98.2073 173.5,102.5 Z"/></g>
<g><path style="opacity:0.275" fill="#0a0a0a" d="M 169.5,76.5 C 171.595,77.412 173.595,78.5787 175.5,80C 179.685,84.242 184.018,88.242 188.5,92C 193.067,97.059 197.401,102.226 201.5,107.5C 190.833,97.1667 180.167,86.8333 169.5,76.5 Z"/></g>
<g><path style="opacity:0.059" fill="#070707" d="M 173.5,102.5 C 176.763,105.583 180.263,108.583 184,111.5C 185.421,113.405 186.588,115.405 187.5,117.5C 182.106,113.108 177.439,108.108 173.5,102.5 Z"/></g>
<g><path style="opacity:0.05" fill="#070707" d="M 66.5,107.5 C 68.8695,114.289 70.8695,121.289 72.5,128.5C 69.1237,122.01 67.1237,115.01 66.5,107.5 Z"/></g>
<g><path style="opacity:0.052" fill="#080808" d="M 255.5,101.5 C 248.741,109.324 241.741,116.991 234.5,124.5C 239.895,115.383 246.895,107.717 255.5,101.5 Z"/></g>
<g><path style="opacity:0.278" fill="#0c0c0b" d="M 248.5,42.5 C 251.324,44.7996 253.157,47.7996 254,51.5C 256.055,57.9422 258.388,64.2755 261,70.5C 261.667,72.1667 261.667,73.8333 261,75.5C 252.589,83.2513 244.255,90.918 236,98.5C 228.787,106.711 221.954,115.211 215.5,124C 213.255,123.805 211.422,122.638 210,120.5C 207.146,116.11 204.313,111.776 201.5,107.5C 206.125,112.06 210.291,117.06 214,122.5C 227.257,104.575 242.59,88.5748 260,74.5C 257.087,63.6007 253.254,52.934 248.5,42.5 Z"/></g>
<g><path style="opacity:0.231" fill="#0b0b0b" d="M 369.5,67.5 C 373.607,72.0409 376.44,77.3742 378,83.5C 381.649,107.756 377.149,130.423 364.5,151.5C 369.848,153.273 374.848,155.607 379.5,158.5C 374.752,157.295 370.085,155.795 365.5,154C 364.09,153.632 363.09,152.799 362.5,151.5C 367.768,142.299 371.935,132.632 375,122.5C 381.072,103.259 379.239,84.9261 369.5,67.5 Z"/></g>
<g><path style="opacity:0.051" fill="#090909" d="M 187.5,117.5 C 192.616,121.955 196.616,127.289 199.5,133.5C 195.122,128.455 191.122,123.122 187.5,117.5 Z"/></g>
<g><path style="opacity:0.037" fill="#070707" d="M 234.5,124.5 C 231.191,130.446 227.858,136.446 224.5,142.5C 225.577,144.729 226.244,147.063 226.5,149.5C 224.362,146.913 223.529,143.913 224,140.5C 226.778,134.588 230.278,129.255 234.5,124.5 Z"/></g>
<g><path style="opacity:0.044" fill="#0b0b0b" d="M 130.5,73.5 C 136.645,75.4892 142.478,78.1559 148,81.5C 147.55,97.8209 147.55,114.154 148,130.5C 149,137.492 149.833,144.492 150.5,151.5C 145.965,150.863 141.632,149.863 137.5,148.5C 141.179,148.724 144.846,149.058 148.5,149.5C 147.051,137.048 146.051,124.548 145.5,112C 146.169,102.145 146.669,92.3115 147,82.5C 141.358,79.5988 135.858,76.5988 130.5,73.5 Z"/></g>
<g><path style="opacity:0.037" fill="#060606" d="M 72.5,128.5 C 73.9313,129.78 74.5979,131.447 74.5,133.5C 73.0687,132.22 72.4021,130.553 72.5,128.5 Z"/></g>
<g><path style="opacity:0.214" fill="#090909" d="M 74.5,133.5 C 77.0145,138.019 79.6811,142.519 82.5,147C 92.1566,147.069 101.823,146.902 111.5,146.5C 120.383,146.342 129.05,147.009 137.5,148.5C 118.835,147.441 100.169,147.274 81.5,148C 78.2201,143.607 75.8868,138.774 74.5,133.5 Z"/></g>
<g><path style="opacity:0.073" fill="#060606" d="M 351.5,138.5 C 350.476,141.555 349.143,144.555 347.5,147.5C 328.844,147.204 310.178,147.537 291.5,148.5C 300.143,147.334 308.976,146.667 318,146.5C 327.518,147.384 337.018,147.384 346.5,146.5C 347.691,143.432 349.358,140.765 351.5,138.5 Z"/></g>
<g><path style="opacity:0.027" fill="#040404" d="M 226.5,149.5 C 227.931,150.78 228.598,152.447 228.5,154.5C 227.069,153.22 226.402,151.553 226.5,149.5 Z"/></g>
<g><path style="opacity:0.053" fill="#030403" d="M 168.5,152.5 C 169.906,152.973 170.573,153.973 170.5,155.5C 169.094,155.027 168.427,154.027 168.5,152.5 Z"/></g>
<g><path style="opacity:0.037" fill="#070707" d="M 379.5,158.5 C 385.192,159.514 390.192,161.848 394.5,165.5C 389.311,163.403 384.311,161.07 379.5,158.5 Z"/></g>
<g><path style="opacity:0.053" fill="#080808" d="M 170.5,155.5 C 176.062,158.128 181.396,161.128 186.5,164.5C 182.15,162.77 177.817,160.937 173.5,159C 172.29,157.961 171.29,156.794 170.5,155.5 Z"/></g>
<g><path style="opacity:0.05" fill="#0a0a0a" d="M 199.5,133.5 C 202.444,135.715 204.11,138.715 204.5,142.5C 201.675,151.467 199.009,160.467 196.5,169.5C 192.58,168.873 189.247,167.207 186.5,164.5C 189.508,165.42 192.341,166.754 195,168.5C 197.535,159.729 200.368,151.062 203.5,142.5C 202.415,139.335 201.082,136.335 199.5,133.5 Z"/></g>
<g><path style="opacity:0.045" fill="#080808" d="M 228.5,154.5 C 230.595,158.846 232.095,163.513 233,168.5C 240.597,163.701 248.597,159.701 257,156.5C 258.275,154.283 259.275,151.949 260,149.5C 263.258,132.28 264.091,114.947 262.5,97.5C 260.132,98.8889 257.799,100.222 255.5,101.5C 257.435,97.8973 260.435,95.8973 264.5,95.5C 264.667,106.505 264.5,117.505 264,128.5C 263.41,138.038 261.744,147.372 259,156.5C 252.302,159.622 245.802,163.122 239.5,167C 236.904,168.136 234.237,168.969 231.5,169.5C 230.659,164.468 229.659,159.468 228.5,154.5 Z"/></g>
<g><path style="opacity:0.052" fill="#090909" d="M 167.5,192.5 C 165.549,191.284 164.049,189.618 163,187.5C 160.487,180.973 157.32,174.807 153.5,169C 134.695,164.817 115.695,163.65 96.5,165.5C 102.819,173.153 109.486,180.486 116.5,187.5C 109.59,182.096 103.09,176.096 97,169.5C 95.4412,167.783 94.6079,165.783 94.5,163.5C 105.505,163.333 116.505,163.5 127.5,164C 136.658,164.387 145.658,165.721 154.5,168C 159.241,175.983 163.574,184.149 167.5,192.5 Z"/></g>
<g><path style="opacity:0.161" fill="#0c0c0c" d="M 50.5,84.5 C 48.3957,108.449 53.3957,130.783 65.5,151.5C 65.0233,152.478 64.3567,153.311 63.5,154C 57.8828,156.154 52.2162,158.154 46.5,160C 29.3564,166.664 15.6897,177.498 5.5,192.5C 6.52742,188.783 8.36075,185.45 11,182.5C 15.5752,177.254 20.7419,172.754 26.5,169C 38.3493,162.075 50.6827,156.241 63.5,151.5C 54.0582,134.567 49.0582,116.4 48.5,97C 48.4859,92.5887 49.1526,88.422 50.5,84.5 Z"/></g>
<g><path style="opacity:0.039" fill="#080808" d="M 218.5,182.5 C 217.883,182.389 217.383,182.056 217,181.5C 216.625,177.279 215.625,173.279 214,169.5C 212.362,174.871 211.195,180.204 210.5,185.5C 210.303,179.455 210.637,173.455 211.5,167.5C 214.238,166.965 216.072,167.965 217,170.5C 217.304,174.548 217.804,178.548 218.5,182.5 Z"/></g>
<g><path style="opacity:0.008" fill="#0a0a0a" d="M 317.5,182.5 C 322.584,177.241 327.584,171.741 332.5,166C 313.688,163.53 295.021,164.53 276.5,169C 274.714,169.785 273.214,170.951 272,172.5C 268.467,180.403 264.301,187.903 259.5,195C 263.991,196.363 268.324,197.863 272.5,199.5C 269.478,199.196 266.478,198.696 263.5,198C 261.349,197.735 259.682,196.735 258.5,195C 263.146,187.542 267.146,179.708 270.5,171.5C 271.981,170.52 273.315,169.353 274.5,168C 293.802,163.533 313.302,162.367 333,164.5C 333.5,164.833 334,165.167 334.5,165.5C 329.791,172.209 324.124,177.876 317.5,182.5 Z"/></g>
<g><path style="opacity:0.055" fill="#0b0b0a" d="M 394.5,165.5 C 401.075,168.624 406.742,172.957 411.5,178.5C 405.645,174.407 399.978,170.073 394.5,165.5 Z"/></g>
<g><path style="opacity:0.057" fill="#0a0a0a" d="M 394.5,185.5 C 382.315,177.493 369.148,171.493 355,167.5C 348.948,174.954 342.448,181.954 335.5,188.5C 341.465,181.924 346.965,174.924 352,167.5C 352.893,166.919 353.893,166.585 355,166.5C 369.762,169.799 382.928,176.133 394.5,185.5 Z"/></g>
<g><path style="opacity:0.043" fill="#080808" d="M 103.5,198.5 C 92.6906,189.857 83.0239,180.023 74.5,169C 60.788,171.183 48.1213,176.183 36.5,184C 22.1848,193.459 16.1848,206.625 18.5,223.5C 16.5574,218.103 16.0574,212.436 17,206.5C 21.9995,194.501 30.1661,185.334 41.5,179C 49.6847,174.242 58.3514,170.576 67.5,168C 70.1667,167.333 72.8333,167.333 75.5,168C 84.3027,178.637 93.636,188.803 103.5,198.5 Z"/></g>
<g><path style="opacity:0.041" fill="#080808" d="M 199.5,195.5 C 199.5,196.833 199.5,198.167 199.5,199.5C 198.167,199.5 196.833,199.5 195.5,199.5C 188.062,194.73 182.395,188.396 178.5,180.5C 180.766,179.794 183.099,179.961 185.5,181C 191.043,185.042 195.709,189.875 199.5,195.5 Z M 181.5,183.5 C 183.554,187.058 186.22,190.225 189.5,193C 191.298,194.505 193.132,194.672 195,193.5C 192.732,188.242 188.732,184.576 183,182.5C 182.235,182.57 181.735,182.903 181.5,183.5 Z"/></g>
<g><path style="opacity:0.455" fill="#0f0f0f" d="M 394.5,185.5 C 398.167,187.167 400.833,189.833 402.5,193.5C 399.5,191.167 396.833,188.5 394.5,185.5 Z"/></g>
<g><path style="opacity:0.004" fill="#060606" d="M 116.5,187.5 C 118.749,188.08 120.415,189.413 121.5,191.5C 119.251,190.92 117.585,189.587 116.5,187.5 Z"/></g>
<g><path style="opacity:0.049" fill="#0a0a0a" d="M 317.5,182.5 C 310.487,190.179 302.487,196.679 293.5,202C 291.975,203.009 290.308,203.509 288.5,203.5C 298.441,196.894 308.108,189.894 317.5,182.5 Z"/></g>
<g><path style="opacity:0.034" fill="#060606" d="M 231.5,200.5 C 230.5,200.5 229.5,200.5 228.5,200.5C 228.5,199.167 228.5,197.833 228.5,196.5C 233.381,188.611 240.047,182.944 248.5,179.5C 246.173,189.164 240.507,196.164 231.5,200.5 Z M 246.5,181.5 C 241.145,184.342 236.478,188.175 232.5,193C 232.998,194.158 233.831,194.991 235,195.5C 240.477,192.189 244.31,187.523 246.5,181.5 Z"/></g>
<g><path style="opacity:0.187" fill="#111111" d="M 210.5,188.5 C 212.691,190.353 215.025,190.687 217.5,189.5C 217.341,192.201 216.174,194.201 214,195.5C 213.228,195.355 212.561,195.022 212,194.5C 211.495,192.482 210.995,190.482 210.5,188.5 Z"/></g>
<g><path style="opacity:0.051" fill="#060606" d="M 402.5,193.5 C 404.262,194.262 405.262,195.596 405.5,197.5C 403.738,196.738 402.738,195.404 402.5,193.5 Z"/></g>
<g><path style="opacity:0.027" fill="#070707" d="M 335.5,188.5 C 335.586,189.496 335.252,190.329 334.5,191C 330.606,194.404 326.606,197.571 322.5,200.5C 326.207,195.792 330.54,191.792 335.5,188.5 Z"/></g>
<g><path style="opacity:0.022" fill="#090909" d="M 411.5,178.5 C 419.865,185.204 424.865,193.871 426.5,204.5C 425.182,200.075 423.349,195.741 421,191.5C 417.977,186.99 414.811,182.656 411.5,178.5 Z"/></g>
<g><path style="opacity:0.525" fill="#1c1c1c" d="M 228.5,196.5 C 228.5,197.833 228.5,199.167 228.5,200.5C 229.5,200.5 230.5,200.5 231.5,200.5C 230.432,201.434 229.099,201.768 227.5,201.5C 227.216,199.585 227.549,197.919 228.5,196.5 Z"/></g>
<g><path style="opacity:0.525" fill="#1c1c1c" d="M 199.5,195.5 C 200.451,196.919 200.784,198.585 200.5,200.5C 198.585,200.784 196.919,200.451 195.5,199.5C 196.833,199.5 198.167,199.5 199.5,199.5C 199.5,198.167 199.5,196.833 199.5,195.5 Z"/></g>
<g><path style="opacity:0.051" fill="#090909" d="M 272.5,199.5 C 277.828,200.829 283.161,202.162 288.5,203.5C 282.843,204.07 277.509,202.737 272.5,199.5 Z"/></g>
<g><path style="opacity:0.251" fill="#090909" d="M 103.5,198.5 C 106.089,199.419 108.089,201.086 109.5,203.5C 106.911,202.581 104.911,200.914 103.5,198.5 Z"/></g>
<g><path style="opacity:0.224" fill="#0e0e0e" d="M 121.5,191.5 C 127.916,196.128 134.749,200.128 142,203.5C 150.772,200.465 159.605,197.632 168.5,195C 167.748,194.329 167.414,193.496 167.5,192.5C 170.046,193.979 170.046,195.479 167.5,197C 159.054,199.705 150.554,202.205 142,204.5C 133.995,201.991 127.162,197.658 121.5,191.5 Z"/></g>
<g><path style="opacity:0.318" fill="#0c0c0c" d="M 109.5,203.5 C 111.404,203.738 112.738,204.738 113.5,206.5C 111.596,206.262 110.262,205.262 109.5,203.5 Z"/></g>
<g><path style="opacity:0.063" fill="#080808" d="M 322.5,200.5 C 319.071,204.262 315.071,207.262 310.5,209.5C 313.776,205.529 317.776,202.529 322.5,200.5 Z"/></g>
<g><path style="opacity:0.037" fill="#0a0a0a" d="M 405.5,197.5 C 413.465,209.439 413.299,221.439 405,233.5C 401.894,237.153 398.394,240.153 394.5,242.5C 397.462,239.036 400.629,235.703 404,232.5C 410.771,221.147 411.271,209.48 405.5,197.5 Z"/></g>
<g><path style="opacity:0.049" fill="#090909" d="M 175.5,210.5 C 181.601,210.572 187.601,211.406 193.5,213C 194.972,216.552 193.638,218.218 189.5,218C 182.833,218.667 176.167,218.667 169.5,218C 167.254,216.743 165.921,214.91 165.5,212.5C 169.011,212.101 172.344,211.434 175.5,210.5 Z M 177.5,211.5 C 174.325,212.429 170.991,213.262 167.5,214C 172.274,216.288 177.274,217.288 182.5,217C 184.002,216.417 185.335,215.584 186.5,214.5C 183.972,212.126 180.972,211.126 177.5,211.5 Z"/></g>
<g><path style="opacity:0.187" fill="#131313" d="M 241.5,210.5 C 240.019,211.421 238.686,212.588 237.5,214C 238.686,215.412 240.019,216.579 241.5,217.5C 238.063,217.755 235.396,216.588 233.5,214C 235.396,211.412 238.063,210.245 241.5,210.5 Z"/></g>
<g><path style="opacity:0.02" fill="#060606" d="M 241.5,210.5 C 246.844,210.334 252.177,210.501 257.5,211C 265.5,213 265.5,215 257.5,217C 252.177,217.499 246.844,217.666 241.5,217.5C 240.019,216.579 238.686,215.412 237.5,214C 238.686,212.588 240.019,211.421 241.5,210.5 Z M 244.5,211.5 C 243.791,212.404 242.791,212.737 241.5,212.5C 241.33,213.822 241.663,214.989 242.5,216C 248.654,216.785 254.654,216.118 260.5,214C 255.286,212.409 249.952,211.575 244.5,211.5 Z"/></g>
<g><path style="opacity:0.204" fill="#0d0d0d" d="M 310.5,209.5 C 309.284,211.451 307.618,212.951 305.5,214C 306.71,215.039 307.71,216.206 308.5,217.5C 302.351,215.873 302.018,213.373 307.5,210C 308.448,209.517 309.448,209.351 310.5,209.5 Z"/></g>
<g><path style="opacity:0.227" fill="#0a0a0a" d="M 308.5,217.5 C 313.224,219.529 317.224,222.529 320.5,226.5C 315.929,224.262 311.929,221.262 308.5,217.5 Z"/></g>
<g><path style="opacity:0.059" fill="#080808" d="M 152.5,227.5 C 148.238,226.242 143.904,225.742 139.5,226C 134.444,229.188 129.444,232.355 124.5,235.5C 128.562,231.291 133.228,227.791 138.5,225C 143.588,224.048 148.255,224.881 152.5,227.5 Z"/></g>
<g><path style="opacity:0.157" fill="#0c0c0c" d="M 18.5,223.5 C 20.0075,225.181 21.0075,227.181 21.5,229.5C 19.461,228.089 18.461,226.089 18.5,223.5 Z"/></g>
<g><path style="opacity:0.055" fill="#0f0f0f" d="M 152.5,227.5 C 155.228,227.171 157.562,227.837 159.5,229.5C 156.848,229.59 154.515,228.924 152.5,227.5 Z"/></g>
<g><path style="opacity:0.309" fill="#151515" d="M 233.5,229.5 C 232.167,229.5 230.833,229.5 229.5,229.5C 229.5,230.833 229.5,232.167 229.5,233.5C 227.926,231.898 227.259,229.898 227.5,227.5C 229.898,227.259 231.898,227.926 233.5,229.5 Z"/></g>
<g><path style="opacity:0.309" fill="#161616" d="M 198.5,234.5 C 198.5,233.167 198.5,231.833 198.5,230.5C 197.167,230.5 195.833,230.5 194.5,230.5C 195.99,228.72 197.99,228.054 200.5,228.5C 200.741,230.898 200.074,232.898 198.5,234.5 Z"/></g>
<g><path style="opacity:0.049" fill="#070707" d="M 233.5,229.5 C 241.464,234.124 246.797,240.79 249.5,249.5C 244.55,248.695 240.55,246.362 237.5,242.5C 240.758,243.908 243.924,245.574 247,247.5C 247.167,247.167 247.333,246.833 247.5,246.5C 244.527,242.06 241.194,237.893 237.5,234C 235.741,233.202 234.074,233.369 232.5,234.5C 233.559,236.534 234.559,238.534 235.5,240.5C 232.781,238.781 230.781,236.447 229.5,233.5C 229.5,232.167 229.5,230.833 229.5,229.5C 230.833,229.5 232.167,229.5 233.5,229.5 Z"/></g>
<g><path style="opacity:0.054" fill="#080808" d="M 320.5,226.5 C 322.932,227.75 325.266,229.25 327.5,231C 334.808,237.464 341.141,244.631 346.5,252.5C 338.167,243.5 329.5,234.833 320.5,226.5 Z"/></g>
<g><path style="opacity:0.048" fill="#080808" d="M 297.5,230.5 C 294.051,228.392 290.384,226.725 286.5,225.5C 277.547,228.428 268.547,231.262 259.5,234C 264.822,240.806 268.989,248.306 272,256.5C 273.8,258.317 275.966,259.484 278.5,260C 293.73,262.595 309.064,264.095 324.5,264.5C 308.881,265.158 293.214,263.991 277.5,261C 274.966,260.484 272.8,259.317 271,257.5C 268.031,249.558 264.031,242.225 259,235.5C 258.251,234.365 258.417,233.365 259.5,232.5C 268.395,229.923 277.228,227.256 286,224.5C 290.894,224.58 294.727,226.58 297.5,230.5 Z"/></g>
<g><path style="opacity:0.022" fill="#090909" d="M 159.5,229.5 C 163.351,229.455 166.684,230.621 169.5,233C 169.361,234.301 168.695,235.134 167.5,235.5C 167.719,234.325 167.386,233.325 166.5,232.5C 163.984,231.67 161.65,230.67 159.5,229.5 Z"/></g>
<g><path style="opacity:0.049" fill="#080808" d="M 297.5,230.5 C 300.37,231.433 302.704,233.1 304.5,235.5C 301.63,234.567 299.296,232.9 297.5,230.5 Z"/></g>
<g><path style="opacity:0.059" fill="#0b0b0b" d="M 190.5,233.5 C 190.167,234.5 189.5,235.167 188.5,235.5C 188.5,234.167 189.167,233.5 190.5,233.5 Z"/></g>
<g><path style="opacity:0.057" fill="#080808" d="M 426.5,204.5 C 429.153,217.075 427.319,229.075 421,240.5C 420.292,241.381 419.458,242.047 418.5,242.5C 421.798,236.896 424.298,230.896 426,224.5C 426.5,217.842 426.666,211.175 426.5,204.5 Z"/></g>
<g><path style="opacity:0.187" fill="#131313" d="M 217.5,241.5 C 216.579,240.019 215.412,238.686 214,237.5C 212.588,238.686 211.421,240.019 210.5,241.5C 210.245,238.063 211.412,235.396 214,233.5C 216.588,235.396 217.755,238.063 217.5,241.5 Z"/></g>
<g><path style="opacity:0.051" fill="#0c0c0c" d="M 113.5,206.5 C 116.926,208.076 120.26,209.909 123.5,212C 124.517,213.049 124.684,214.216 124,215.5C 114.857,221.982 106.024,228.815 97.5,236C 90.1384,244.026 82.8051,252.026 75.5,260C 73.2884,260.789 71.2884,260.622 69.5,259.5C 71.1992,259.66 72.8659,259.494 74.5,259C 81.8616,250.974 89.1949,242.974 96.5,235C 104.736,227.595 113.402,220.762 122.5,214.5C 119.48,211.811 116.48,209.144 113.5,206.5 Z"/></g>
<g><path style="opacity:0.046" fill="#080808" d="M 194.5,230.5 C 195.833,230.5 197.167,230.5 198.5,230.5C 198.5,231.833 198.5,233.167 198.5,234.5C 194.709,240.125 190.043,244.958 184.5,249C 182.527,249.495 180.527,249.662 178.5,249.5C 180.371,243.747 183.704,239.081 188.5,235.5C 185.772,238.899 183.439,242.566 181.5,246.5C 186.948,244.566 191.448,241.233 195,236.5C 195.124,234.259 193.958,232.926 191.5,232.5C 192.29,231.599 193.29,230.932 194.5,230.5 Z"/></g>
<g><path style="opacity:0.061" fill="#0a0b0b" d="M 4.5,194.5 C -1.93447,210.622 -0.434465,225.955 9,240.5C 12.8409,244.865 16.6742,249.198 20.5,253.5C 10.05,245.94 3.05001,235.94 -0.5,223.5C -0.5,217.5 -0.5,211.5 -0.5,205.5C 0.58272,201.592 2.24939,197.926 4.5,194.5 Z"/></g>
<g><path style="opacity:0.322" fill="#0a0a0a" d="M 394.5,242.5 C 394.027,243.906 393.027,244.573 391.5,244.5C 391.973,243.094 392.973,242.427 394.5,242.5 Z"/></g>
<g><path style="opacity:0.086" fill="#060606" d="M 217.5,241.5 C 218.114,248.721 217.281,255.721 215,262.5C 213.287,261.122 211.953,259.455 211,257.5C 210.501,252.177 210.334,246.844 210.5,241.5C 211.421,240.019 212.588,238.686 214,237.5C 215.412,238.686 216.579,240.019 217.5,241.5 Z M 213.5,241.5 C 212.149,243.423 211.482,245.59 211.5,248C 213.181,261.97 214.848,261.97 216.5,248C 216.68,245.198 215.68,243.031 213.5,241.5 Z"/></g>
<g><path style="opacity:0.031" fill="#090909" d="M 418.5,242.5 C 417.243,245.427 415.243,247.761 412.5,249.5C 413.757,246.573 415.757,244.239 418.5,242.5 Z"/></g>
<g><path style="opacity:0.059" fill="#0a0a0a" d="M 304.5,235.5 C 315.37,242.697 325.037,251.364 333.5,261.5C 333.833,262.167 334.167,262.833 334.5,263.5C 331.232,264.487 327.898,264.82 324.5,264.5C 326.969,263.683 329.635,263.183 332.5,263C 323.298,253.631 313.965,244.464 304.5,235.5 Z"/></g>
<g><path style="opacity:0.039" fill="#0a0a0a" d="M 21.5,229.5 C 24.9352,233.438 28.6019,237.271 32.5,241C 43.9646,248.983 56.298,255.15 69.5,259.5C 51.186,255.925 35.686,247.258 23,233.5C 22.2086,232.255 21.7086,230.922 21.5,229.5 Z"/></g>
<g><path style="opacity:0.024" fill="#0a0a0a" d="M 412.5,249.5 C 407.267,255.228 401.267,260.061 394.5,264C 384.657,268.666 374.657,272.833 364.5,276.5C 366.4,279.629 367.733,282.963 368.5,286.5C 366.705,283.596 364.872,280.596 363,277.5C 362.251,276.365 362.417,275.365 363.5,274.5C 372.282,271.629 380.948,268.462 389.5,265C 397.885,260.761 405.552,255.594 412.5,249.5 Z"/></g>
<g><path style="opacity:0.065" fill="#0b0b0b" d="M 391.5,244.5 C 382.076,252.041 371.41,257.208 359.5,260C 353.091,261.128 348.757,258.628 346.5,252.5C 348.963,254.461 351.297,256.628 353.5,259C 354.333,259.167 355.167,259.333 356,259.5C 368.687,256.332 380.52,251.332 391.5,244.5 Z"/></g>
<g><path style="opacity:0.039" fill="#090909" d="M 20.5,253.5 C 24.7066,255.435 28.3733,258.102 31.5,261.5C 26.9391,260.054 23.2724,257.387 20.5,253.5 Z"/></g>
<g><path style="opacity:0.065" fill="#0a0a0a" d="M 168.5,275.5 C 168.859,273.629 169.859,272.129 171.5,271C 179.455,267.356 187.121,263.189 194.5,258.5C 195.086,258.709 195.586,259.043 196,259.5C 198.738,268.547 201.572,277.547 204.5,286.5C 195.063,304.457 182.396,319.957 166.5,333C 165.552,333.483 164.552,333.649 163.5,333.5C 163.243,318.473 163.743,303.473 165,288.5C 165.725,283.923 166.892,279.59 168.5,275.5 Z M 168.5,275.5 C 167.171,284.127 166.005,292.794 165,301.5C 164.029,311.66 164.362,321.66 166,331.5C 181.266,318.74 193.766,303.74 203.5,286.5C 200.498,277.828 197.498,269.161 194.5,260.5C 185.447,265.02 176.78,270.02 168.5,275.5 Z"/></g>
<g><path style="opacity:0.056" fill="#060606" d="M 124.5,235.5 C 114.58,243.751 105.247,252.751 96.5,262.5C 101.068,263.819 105.735,264.486 110.5,264.5C 121.901,263.969 133.234,262.803 144.5,261C 148.019,260.605 151.352,259.605 154.5,258C 158.128,251.245 161.628,244.412 165,237.5C 165.708,236.619 166.542,235.953 167.5,235.5C 163.654,243.358 159.654,251.191 155.5,259C 152.352,260.605 149.019,261.605 145.5,262C 128.21,265.396 110.877,265.896 93.5,263.5C 102.601,252.728 112.935,243.395 124.5,235.5 Z"/></g>
<g><path style="opacity:0.184" fill="#0d0d0d" d="M 31.5,261.5 C 35.651,262.66 39.3177,264.66 42.5,267.5C 40.6916,267.509 39.0249,267.009 37.5,266C 35.2528,264.723 33.2528,263.223 31.5,261.5 Z"/></g>
<g><path style="opacity:0.035" fill="#060606" d="M 42.5,267.5 C 44.5529,267.402 46.2196,268.069 47.5,269.5C 45.4471,269.598 43.7804,268.931 42.5,267.5 Z"/></g>
<g><path style="opacity:0.204" fill="#0b0b0b" d="M 250.5,268.5 C 244.5,265.833 238.5,263.167 232.5,260.5C 231.425,268.465 229.259,276.131 226,283.5C 225.503,285.81 225.337,288.143 225.5,290.5C 224.475,289.626 223.808,288.459 223.5,287C 227.087,277.742 229.754,268.242 231.5,258.5C 238.304,261.067 244.637,264.401 250.5,268.5 Z"/></g>
<g><path style="opacity:0.033" fill="#0b0b0b" d="M 119.5,358.5 C 129.166,355.419 138.333,351.086 147,345.5C 144.612,323.124 145.112,300.79 148.5,278.5C 126.571,281.353 104.571,282.187 82.5,281C 72.2048,297.718 66.8715,315.885 66.5,335.5C 65.0565,322.904 66.8898,310.571 72,298.5C 74.8682,292.104 77.7015,285.77 80.5,279.5C 89.8341,279.744 99.1674,280.078 108.5,280.5C 122.537,279.86 136.537,278.86 150.5,277.5C 149.571,282.464 148.737,287.464 148,292.5C 147.708,310.863 147.541,329.197 147.5,347.5C 138.701,352.762 129.367,356.428 119.5,358.5 Z"/></g>
<g><path style="opacity:0.051" fill="#070707" d="M 368.5,286.5 C 369.931,287.78 370.598,289.447 370.5,291.5C 369.069,290.22 368.402,288.553 368.5,286.5 Z"/></g>
<g><path style="opacity:0.039" fill="#070707" d="M 225.5,290.5 C 229.237,294.302 232.237,298.635 234.5,303.5C 230.763,299.698 227.763,295.365 225.5,290.5 Z"/></g>
<g><path style="opacity:0.063" fill="#090908" d="M 293.5,279.5 C 311.194,280.481 328.861,280.814 346.5,280.5C 357.642,297.421 362.642,315.754 361.5,335.5C 361.231,316.024 355.898,298.024 345.5,281.5C 331.549,281.506 317.549,281.34 303.5,281C 299.975,280.821 296.641,280.321 293.5,279.5 Z"/></g>
<g><path style="opacity:0.055" fill="#070707" d="M 370.5,291.5 C 375.369,300.119 378.036,309.452 378.5,319.5C 376.479,310.096 373.812,300.762 370.5,291.5 Z"/></g>
<g><path style="opacity:0.043" fill="#0a0a0a" d="M 250.5,268.5 C 253.516,268.841 256.182,270.007 258.5,272C 259.893,273.171 260.727,274.671 261,276.5C 264.609,295.358 265.775,314.358 264.5,333.5C 262.217,333.392 260.217,332.559 258.5,331C 251.221,324.561 244.888,317.395 239.5,309.5C 246.802,317.634 254.635,325.301 263,332.5C 264.763,312.501 263.096,292.835 258,273.5C 255.176,272.182 252.676,270.515 250.5,268.5 Z"/></g>
<g><path style="opacity:0.329" fill="#0b0b0b" d="M 234.5,303.5 C 236.914,304.911 238.581,306.911 239.5,309.5C 236.893,308.288 235.226,306.288 234.5,303.5 Z"/></g>
<g><path style="opacity:0.039" fill="#080808" d="M 224.5,318.5 C 220.865,314.693 217.365,310.693 214,306.5C 201.482,324.528 186.482,340.195 169,353.5C 168.51,354.793 168.343,356.127 168.5,357.5C 167.387,356.054 167.22,354.387 168,352.5C 185.585,338.67 200.918,322.67 214,304.5C 218.248,308.69 221.748,313.356 224.5,318.5 Z"/></g>
<g><path style="opacity:0.18" fill="#0a0a0a" d="M 224.5,318.5 C 232.528,326.86 240.528,335.193 248.5,343.5C 239.126,336.46 231.126,328.126 224.5,318.5 Z"/></g>
<g><path style="opacity:0.129" fill="#080808" d="M 66.5,335.5 C 73.5484,357.535 88.5484,365.868 111.5,360.5C 90.5615,367.279 75.7282,360.612 67,340.5C 66.5065,338.866 66.3398,337.199 66.5,335.5 Z"/></g>
<g><path style="opacity:0.025" fill="#0a0a0a" d="M 378.5,319.5 C 380.571,331.045 379.404,342.379 375,353.5C 374.208,356.106 372.708,358.106 370.5,359.5C 372.358,354.447 374.524,349.447 377,344.5C 378.33,336.227 378.83,327.893 378.5,319.5 Z"/></g>
<g><path style="opacity:0.061" fill="#0a0a0a" d="M 47.5,269.5 C 53.3599,270.713 59.0266,272.379 64.5,274.5C 61.0293,283.453 57.5293,292.453 54,301.5C 52.5733,307.168 51.2399,312.835 50,318.5C 46.1819,348.573 58.3486,368.573 86.5,378.5C 69.0611,375.189 57.2278,365.189 51,348.5C 47.3522,338.356 46.6855,328.023 49,317.5C 51.4066,303.447 55.9066,290.113 62.5,277.5C 62.1667,276.833 61.8333,276.167 61.5,275.5C 56.6504,273.67 51.9837,271.67 47.5,269.5 Z"/></g>
<g><path style="opacity:0.051" fill="#0a0a09" d="M 293.5,279.5 C 288.463,279.587 283.463,279.254 278.5,278.5C 281.577,299.74 282.244,321.073 280.5,342.5C 280.686,344.58 281.686,346.08 283.5,347C 295.544,354.238 308.544,358.904 322.5,361C 343.162,363.79 356.162,355.29 361.5,335.5C 359.747,350.428 351.414,359.595 336.5,363C 316.254,363.217 297.588,357.884 280.5,347C 280.408,331.914 280.242,316.747 280,301.5C 279.726,294.265 278.892,287.099 277.5,280C 277.509,278.596 278.009,277.43 279,276.5C 283.862,277.859 288.696,278.859 293.5,279.5 Z"/></g>
<g><path style="opacity:0.012" fill="#060606" d="M 370.5,359.5 C 370.262,361.404 369.262,362.738 367.5,363.5C 367.738,361.596 368.738,360.262 370.5,359.5 Z"/></g>
<g><path style="opacity:0.043" fill="#090909" d="M 248.5,343.5 C 253.368,346.448 257.701,350.115 261.5,354.5C 259.332,361.172 257.166,367.839 255,374.5C 253.581,376.993 252.081,379.326 250.5,381.5C 254.19,372.941 257.19,364.108 259.5,355C 255.863,351.172 252.196,347.339 248.5,343.5 Z"/></g>
<g><path style="opacity:0.056" fill="#0b0b0b" d="M 156.5,377.5 C 154.691,373.407 152.691,369.407 150.5,365.5C 133.855,374.078 116.189,378.744 97.5,379.5C 93.6508,379.499 89.9841,379.165 86.5,378.5C 93.5079,378.666 100.508,378.5 107.5,378C 122.557,374.759 137.057,369.926 151,363.5C 154.661,367.291 156.494,371.958 156.5,377.5 Z"/></g>
<g><path style="opacity:0.033" fill="#0a0a0a" d="M 168.5,357.5 C 172.541,370.249 178.207,382.249 185.5,393.5C 176.635,383.1 170.968,371.1 168.5,357.5 Z"/></g>
<g><path style="opacity:0.041" fill="#0a0a0a" d="M 367.5,363.5 C 361.011,371.927 352.344,377.094 341.5,379C 322.337,381.932 304.337,378.766 287.5,369.5C 296.987,372.908 306.654,375.742 316.5,378C 336.051,381.666 353.051,376.833 367.5,363.5 Z"/></g>
<g><path style="opacity:0.125" fill="#0b0b0b" d="M 287.5,369.5 C 283.716,368.571 280.049,367.238 276.5,365.5C 271.78,380.273 264.947,393.94 256,406.5C 253.63,409.039 251.13,411.372 248.5,413.5C 260.435,399.008 269.269,382.674 275,364.5C 275.414,364.043 275.914,363.709 276.5,363.5C 280.389,365.274 284.055,367.274 287.5,369.5 Z"/></g>
<g><path style="opacity:0.037" fill="#060606" d="M 250.5,381.5 C 249.502,385.505 247.502,388.839 244.5,391.5C 246,387.827 248,384.494 250.5,381.5 Z"/></g>
<g><path style="opacity:0.184" fill="#0d0d0d" d="M 156.5,377.5 C 163.147,392.469 172.147,405.803 183.5,417.5C 178.23,414.065 173.73,409.731 170,404.5C 164.429,396.025 159.929,387.025 156.5,377.5 Z"/></g>
<g><path style="opacity:0.165" fill="#0a0a0a" d="M 185.5,393.5 C 188.243,395.239 190.243,397.573 191.5,400.5C 188.757,398.761 186.757,396.427 185.5,393.5 Z"/></g>
<g><path style="opacity:0.012" fill="#070707" d="M 193.5,402.5 C 195.404,402.738 196.738,403.738 197.5,405.5C 195.596,405.262 194.262,404.262 193.5,402.5 Z"/></g>
<g><path style="opacity:0.196" fill="#0b0b0b" d="M 244.5,391.5 C 239.959,399.871 233.292,406.038 224.5,410C 222.527,410.495 220.527,410.662 218.5,410.5C 222.28,409.621 225.947,408.121 229.5,406C 235.03,401.636 240.03,396.802 244.5,391.5 Z"/></g>
<g><path style="opacity:0.192" fill="#0b0b0b" d="M 197.5,405.5 C 201.126,407.37 204.792,409.037 208.5,410.5C 203.955,410.55 200.289,408.883 197.5,405.5 Z"/></g>
<g><path style="opacity:0.161" fill="#080808" d="M 183.5,417.5 C 185.027,417.427 186.027,418.094 186.5,419.5C 184.973,419.573 183.973,418.906 183.5,417.5 Z"/></g>
<g><path style="opacity:0.133" fill="#0c0c0c" d="M 186.5,419.5 C 188.674,419.75 190.341,420.75 191.5,422.5C 189.326,422.25 187.659,421.25 186.5,419.5 Z"/></g>
<g><path style="opacity:0.031" fill="#050505" d="M 191.5,422.5 C 193.153,422.66 194.486,423.326 195.5,424.5C 193.62,424.771 192.287,424.104 191.5,422.5 Z"/></g>
<g><path style="opacity:0.044" fill="#090909" d="M 247.5,414.5 C 243.005,419.771 237.338,423.604 230.5,426C 226.653,426.633 222.986,427.467 219.5,428.5C 215.5,428.5 211.5,428.5 207.5,428.5C 203.25,427.984 199.25,426.651 195.5,424.5C 214.629,430.151 231.962,426.818 247.5,414.5 Z"/></g>
</svg>
